<?xml version="1.0" encoding="UTF-8" standalone="no"?>
<!-- Created with Inkscape (http://www.inkscape.org/) -->

<svg
   width="210mm"
   height="297mm"
   viewBox="0 0 210 297"
   version="1.1"
   id="svg5"
   sodipodi:docname="Logo_castillo.svg"
   inkscape:version="1.2.1 (9c6d41e410, 2022-07-14)"
   xmlns:inkscape="http://www.inkscape.org/namespaces/inkscape"
   xmlns:sodipodi="http://sodipodi.sourceforge.net/DTD/sodipodi-0.dtd"
   xmlns="http://www.w3.org/2000/svg"
   xmlns:svg="http://www.w3.org/2000/svg">
  <sodipodi:namedview
     id="namedview7"
     pagecolor="#ffffff"
     bordercolor="#000000"
     borderopacity="0.25"
     inkscape:showpageshadow="2"
     inkscape:pageopacity="0.0"
     inkscape:pagecheckerboard="0"
     inkscape:deskcolor="#d1d1d1"
     inkscape:document-units="mm"
     showgrid="true"
     inkscape:zoom="1.726111"
     inkscape:cx="436.24077"
     inkscape:cy="343.54685"
     inkscape:window-width="2026"
     inkscape:window-height="1363"
     inkscape:window-x="1017"
     inkscape:window-y="471"
     inkscape:window-maximized="0"
     inkscape:current-layer="path4358">
    <inkscape:grid
       type="xygrid"
       id="grid4805"
       dotted="false"
       spacingx="0.52916667"
       spacingy="0.52916667" />
  </sodipodi:namedview>
  <defs
     id="defs2">
    <inkscape:perspective
       sodipodi:type="inkscape:persp3d"
       inkscape:vp_x="0 : 148.5 : 1"
       inkscape:vp_y="0 : 1000 : 0"
       inkscape:vp_z="210 : 148.5 : 1"
       inkscape:persp3d-origin="105 : 99 : 1"
       id="perspective4260" />
  </defs>
  <g
     inkscape:label="Capa 1"
     inkscape:groupmode="layer"
     id="layer1">
    <circle
       style="opacity:1;fill:none;fill-opacity:1;fill-rule:evenodd;stroke:#000000;stroke-width:6.00001;stroke-dasharray:none;stroke-opacity:1"
       id="path532"
       cx="99.375"
       cy="99.375"
       inkscape:transform-center-x="-44.448902"
       inkscape:transform-center-y="31.005294"
       r="76.374992" />
    <g
       id="path4358"
       transform="matrix(1.0379243,0,0,1,-17.987649,55.301752)"
       style="stroke-width:0.981561">
      <path
         style="color:#000000;fill:none;fill-rule:evenodd;stroke-width:2.94468;stroke-dasharray:none"
         d="m 129.64516,136.40459 c -6.83653,43.817 41.20802,-3.99714 38.242,53.8402 m 0,0 -67.41529,1.07009 c 0,0 -1.702417,-31.16206 0.95996,-20.43781 0,0 -8.076126,-1.2326 -11.767245,-1.03596 -3.702801,0.19727 -10.406857,-4.65441 -9.733833,4.86692 0.745189,10.54225 -0.633536,4.79156 -0.476698,16.07181 l -18.727851,-0.48433 -18.72785,-0.48433 -0.717152,-13.39423 0.281725,-16.56273 9.143052,-0.25044 -0.172917,-5.75589 8.615601,1.15815 0.13244,4.88234 15.097647,0.79324 -0.659351,-25.28878 7.912913,-0.457 -1.58201,19.38924 13.46573,3.28202 1.148915,-20.39312 12.364364,-1.21409 -0.93975,21.07217 11.50345,-0.26752 1.67714,-20.13243 10.37501,-0.26752 m 37.16488,11.84924 -32.81582,-0.8274 9.14305,-0.25044 -0.17292,-5.75589 8.61561,1.15815 0.13244,4.88234 z"
         id="path4498"
         sodipodi:nodetypes="cccccssccccccccccccccccccccccccccc" />
      <path
         style="opacity:1;fill:#060606;fill-opacity:1;fill-rule:evenodd;stroke:#000000;stroke-width:0;stroke-dasharray:none;stroke-opacity:1"
         d="m 63.215255,63.760749 v -7.9375 h 7.647475 v 7.9375 h 7.647475 L 81.059363,42.594082 H 78.510205 V 29.364915 h 10.196633 v 7.9375 h 12.745792 v -7.9375 h 22.94242 v 7.9375 h 12.7458 v -7.9375 h 10.19663 v 13.229167 h -2.54916 l 2.54916,21.166667 h 7.64747 v -7.9375 h 7.64748 v 7.9375 h 7.64747 v -7.9375 h 5.09832 v 13.229166 h -2.54916 l -5.09831,26.458334 -17.84411,15.875001 -25.49159,7.9375 v -15.875 c 0,0 0,-10.583334 -10.19663,-10.583334 h -2.54916 c -10.19663,0 -10.19663,10.583334 -10.19663,10.583334 v 15.875 L 75.961047,111.38575 58.116938,95.510749 53.018622,69.052415 h -2.549159 v -7.9375 -5.291666 h 5.098317 v 7.9375 h 2.549158 z"
         id="path4500"
         sodipodi:nodetypes="cccccccccccccccccccccccccccccccccsscccccccccccc" />
      <rect
         style="opacity:1;fill:#ffffff;fill-opacity:1;fill-rule:evenodd;stroke:#000000;stroke-width:0.392624;stroke-dasharray:none;stroke-opacity:1"
         id="rect4820"
         width="10.196636"
         height="10.583332"
         x="68.313568"
         y="74.344086"
         ry="2.6458299" />
      <rect
         style="opacity:1;fill:#ffffff;fill-opacity:1;fill-rule:evenodd;stroke:#000000;stroke-width:0.392624;stroke-dasharray:none;stroke-opacity:1"
         id="rect4822"
         width="10.196633"
         height="10.58333"
         x="147.33748"
         y="74.344086"
         ry="2.6458299" />
      <rect
         style="fill:#ffffff;fill-opacity:1;fill-rule:evenodd;stroke:#000000;stroke-width:0.392624;stroke-dasharray:none;stroke-opacity:1"
         id="rect4822-7"
         width="7.647471"
         height="13.229167"
         x="96.354317"
         y="50.531582"
         ry="2.6458335" />
      <rect
         style="fill:#ffffff;fill-opacity:1;fill-rule:evenodd;stroke:#000000;stroke-width:0.392624;stroke-dasharray:none;stroke-opacity:1"
         id="rect4822-7-1"
         width="7.6474695"
         height="13.229168"
         x="109.10011"
         y="50.531582"
         ry="2.6458335" />
      <rect
         style="fill:#ffffff;fill-opacity:1;fill-rule:evenodd;stroke:#000000;stroke-width:0.392624;stroke-dasharray:none;stroke-opacity:1"
         id="rect4822-7-1-8"
         width="7.6474814"
         height="13.229168"
         x="121.84589"
         y="50.531582"
         ry="2.6458335" />
      <rect
         style="opacity:1;fill:#060606;fill-opacity:1;fill-rule:evenodd;stroke:#000000;stroke-width:0.392624;stroke-dasharray:none;stroke-opacity:1"
         id="rect4827"
         width="2.4369652"
         height="42.398182"
         x="111.76145"
         y="-13.033257" />
      <rect
         style="opacity:1;fill:#ffffff;fill-opacity:1;fill-rule:evenodd;stroke:none;stroke-width:0.392624;stroke-dasharray:none;stroke-opacity:1"
         id="rect4831"
         width="22.942425"
         height="13.229166"
         x="101.45263"
         y="114.03158" />
      <path
         style="fill:#000000;stroke-width:0.254916"
         d="m 88.706838,29.364914 5.098317,2.645833 v 7.9375 h -5.098317 z"
         id="path433" />
      <path
         style="fill:#000000;stroke-width:0.254916"
         d="m 137.14085,29.364914 -5.09832,2.645833 v 7.9375 h 5.09832 z"
         id="path435" />
      <rect
         style="fill:none;stroke-width:0.9815607;stroke:#ffffff;stroke-opacity:1;stroke-dasharray:none;paint-order:markers stroke fill"
         id="rect489"
         width="12.745791"
         height="10.583333"
         x="88.706841"
         y="26.71908" />
      <rect
         style="fill:none;stroke:#ffffff;stroke-width:0.9815607;stroke-dasharray:none;stroke-opacity:1;paint-order:markers stroke fill"
         id="rect489-0"
         width="12.745769"
         height="10.583332"
         x="124.39506"
         y="26.719082" />
      <path
         style="fill:#000000;stroke-width:0.254916"
         d="m 170.27991,55.823249 -3.84099,2.210829 0.10478,8.046251 3.73621,0.326253 z"
         id="path435-5"
         sodipodi:nodetypes="ccccc" />
      <path
         style="fill:#000000;stroke-width:0.254916"
         d="m 154.98495,55.823249 -3.84099,2.210829 -0.10478,8.481255 3.94577,-0.108751 z"
         id="path435-5-7"
         sodipodi:nodetypes="ccccc" />
      <path
         style="fill:#000000;stroke-width:0.254916"
         d="m 70.86273,55.823249 3.945765,2.645833 -0.104778,7.393745 -3.840987,0.543755 z"
         id="path433-8-7"
         sodipodi:nodetypes="ccccc" />
      <path
         style="fill:#000000;stroke-width:0.254916"
         d="m 55.56778,55.823249 3.945765,2.645833 -0.104778,8.046251 -3.840987,-0.108751 z"
         id="path433-8-7-2"
         sodipodi:nodetypes="ccccc" />
      <rect
         style="fill:none;stroke:#ffffff;stroke-width:0.981561;stroke-dasharray:none;stroke-opacity:1;paint-order:markers fill stroke"
         id="rect1405"
         width="7.6474748"
         height="10.583333"
         x="55.56778"
         y="53.177414" />
      <rect
         style="fill:none;stroke:#ffffff;stroke-width:0.981561;stroke-dasharray:none;stroke-opacity:1;paint-order:markers fill stroke"
         id="rect1407"
         width="7.6474748"
         height="10.583333"
         x="70.862732"
         y="53.177414" />
      <rect
         style="fill:none;stroke:#ffffff;stroke-width:0.981561;stroke-dasharray:none;stroke-opacity:1;paint-order:markers fill stroke"
         id="rect1409"
         width="7.6474781"
         height="10.583327"
         x="162.63243"
         y="53.177414" />
      <rect
         style="fill:none;stroke:#ffffff;stroke-width:0.981561;stroke-dasharray:none;stroke-opacity:1;paint-order:markers fill stroke"
         id="rect1411"
         width="7.6474748"
         height="10.583333"
         x="147.33748"
         y="53.177414" />
      <path
         style="fill:#000000;fill-opacity:1;stroke:#000000;stroke-width:0.981561;stroke-dasharray:none;stroke-opacity:1;paint-order:markers fill stroke"
         d="m 115.7219,4.3184674 0.11219,-15.3708354 c 0,0 1.89154,3.5741188 4.48764,5.0071643 3.6852,2.034238 4.78533,2.379112 8.30213,-0.815119 2.68984,-2.4431144 3.81065,-3.3308873 7.85337,-3.1440363 3.82137,0.1766196 7.51679,5.2400589 7.51679,5.2400589 0,0 -4.30249,-2.1851984 -8.86307,-0.3493371 -4.0089,1.6137766 -2.8249,3.2079804 -5.0486,5.70584099 -1.87213,2.10293261 -4.24332,4.55102961 -8.7509,4.22115761 -2.67482,-0.195747 -5.60955,-0.494894 -5.60955,-0.494894 z"
         id="path1469"
         sodipodi:nodetypes="ccssscsssc" />
    </g>
  </g>
</svg>
