<?xml version="1.0" encoding="UTF-8" standalone="no"?>
<!-- Created with Inkscape (http://www.inkscape.org/) -->

<svg
   width="362.85706mm"
   height="484.02145mm"
   viewBox="0 0 362.85706 484.02145"
   version="1.1"
   id="svg5"
   xml:space="preserve"
   inkscape:version="1.2.1 (9c6d41e410, 2022-07-14)"
   sodipodi:docname="ortego_garcia_igor_RPMI_02_TareaAprendizaje3_imagen_vectorial.svg"
   xmlns:inkscape="http://www.inkscape.org/namespaces/inkscape"
   xmlns:sodipodi="http://sodipodi.sourceforge.net/DTD/sodipodi-0.dtd"
   xmlns="http://www.w3.org/2000/svg"
   xmlns:svg="http://www.w3.org/2000/svg"><sodipodi:namedview
     id="namedview7"
     pagecolor="#ffffff"
     bordercolor="#000000"
     borderopacity="0.25"
     inkscape:showpageshadow="2"
     inkscape:pageopacity="0.0"
     inkscape:pagecheckerboard="0"
     inkscape:deskcolor="#d1d1d1"
     inkscape:document-units="mm"
     showgrid="false"
     inkscape:zoom="0.32346812"
     inkscape:cx="358.61339"
     inkscape:cy="1159.3105"
     inkscape:window-width="1706"
     inkscape:window-height="1415"
     inkscape:window-x="547"
     inkscape:window-y="383"
     inkscape:window-maximized="0"
     inkscape:current-layer="layer1" /><defs
     id="defs2" /><g
     inkscape:label="Capa 1"
     inkscape:groupmode="layer"
     id="layer1"
     transform="translate(79.851535,137.74324)"><path
       style="fill:#000000;stroke-width:0.254"
       d="m -6.9330058,345.9939 c -2.5768401,-0.58816 -3.4592692,-1.24526 -5.4907252,-4.08856 -0.716908,-1.00343 -1.18599,-1.37457 -2.196488,-1.73795 -1.76148,-0.63342 -3.062664,-1.63055 -4.668922,-3.57789 -1.021306,-1.23818 -3.048612,-4.67906 -3.640063,-6.1782 -0.01516,-0.0384 -1.101022,0.44824 -2.413,1.08148 -2.955565,1.42662 -5.380043,1.96777 -8.989416,2.00648 -3.419023,0.0367 -3.897437,-0.18966 -6.074255,-2.87376 -1.951698,-2.40652 -2.923946,-2.87053 -6.323038,-3.0177 -3.361995,-0.14554 -5.099563,0.2361 -8.59537,1.88783 -5.150091,2.4334 -6.741003,2.18788 -9.840532,-1.51866 -0.951006,-1.13726 -2.718107,-3.19565 -3.92689,-4.57424 -1.208784,-1.37858 -2.701141,-3.26453 -3.316349,-4.191 -2.201718,-3.31569 -3.854973,-8.23389 -5.516026,-16.40944 -2.057474,-10.12665 -1.558903,-15.55245 1.986241,-21.61565 1.599428,-2.73546 3.746841,-4.81313 6.379845,-6.17261 1.161393,-0.59967 2.177426,-1.26177 2.25785,-1.47135 0.08042,-0.2096 -0.09868,-1.4859 -0.398021,-2.83626 -0.613001,-2.76535 -5.324526,-31.20464 -6.108601,-36.87219 -2.145365,-15.50739 -2.006615,-24.63958 0.503626,-33.147 1.945556,-6.59367 5.196652,-11.04057 10.762008,-14.72045 4.178676,-2.76298 8.265681,-4.4929 15.636512,-6.61847 l 4.699,-1.35509 -0.051,-5.54399 c -0.03012,-3.27393 -0.284627,-8.12388 -0.621568,-11.84465 -0.543136,-5.9977 -0.555501,-6.65643 -0.25718,-13.70102 0.49803,-11.76063 1.092342,-15.08071 3.742603,-20.90793 l 1.393348,-3.06357 -0.533923,-2.14343 c -0.353944,-1.42088 -0.582491,-3.3672 -0.677997,-5.77393 l -0.144074,-3.63052 -0.625712,0.58252 c -3.053321,2.84257 -7.952016,10.71746 -10.869673,17.47353 -1.072688,2.48389 -1.579883,3.1115 -2.514544,3.1115 -0.367462,0 -0.910397,-0.2143 -1.206523,-0.47625 -1.14775,-1.01524 -2.748242,-3.49685 -3.481426,-5.39806 -1.545485,-4.00759 -4.116923,-15.54978 -5.159725,-23.16008 -0.408023,-2.97772 -0.390604,-19.889162 0.02981,-28.941115 0.629061,-13.544378 1.886377,-25.528568 3.474905,-33.121362 0.201641,-0.963801 0.308026,-1.810959 0.236408,-1.882575 -0.242407,-0.24241 -5.221221,2.041063 -8.337344,3.82382 -2.640708,1.51077 -6.937736,4.311971 -9.347248,6.0934 -0.841868,0.622419 -1.692202,0.504573 -2.304936,-0.319441 -0.459085,-0.617383 -0.462018,-0.781571 -0.07909,-4.428025 0.561202,-5.344043 3.615098,-23.348181 4.943193,-29.142427 1.382179,-6.0302239 2.598216,-9.132199 7.150216,-18.239392 7.123938,-14.25288 9.081044,-17.275612 17.080629,-26.380882 1.639961,-1.866634 2.934384,-3.441246 2.876494,-3.499135 -0.38783,-0.387833 -14.003726,2.906146 -17.321649,4.190479 -2.406571,0.931558 -6.321021,3.245633 -10.073119,5.95485 -1.608829,1.161662 -2.958257,1.954688 -3.326135,1.954688 -2.117195,0 -2.191124,-3.799396 -0.187813,-9.652001 0.549912,-1.60655 2.197824,-7.288027 3.662025,-12.625502 2.850456,-10.39082 3.458601,-12.114426 5.588889,-15.840095 1.206355,-2.109803 6.416004,-9.646768 10.229151,-14.798841 1.584493,-2.140859 10.61415,-11.279053 13.259641,-13.419021 2.488656,-2.013102 9.992713,-7.345355 16.915361,-12.019762 3.0734,-2.075271 5.64515,-3.821931 5.715,-3.881481 0.06985,-0.0596 -0.458516,-0.64804 -1.174145,-1.30775 l -1.301148,-1.19947 -4.921852,-0.81267 c -4.082067,-0.67401 -4.997697,-0.90336 -5.366355,-1.34418 -0.244475,-0.29233 -0.4445,-0.71491 -0.4445,-0.93906 0,-0.68005 4.598337,-7.38834 5.618157,-8.19606 0.524129,-0.41511 2.074784,-1.29332 3.445902,-1.95156 l 2.492941,-1.1968 4.936005,-0.089 c 7.708598,-0.13893 13.3079946,0.42975 20.590995,2.09124 1.46685,0.33463 2.6954328,0.58252 2.7301825,0.55085 0.03475,-0.0317 -1.1363731,-1.93414 -2.6024967,-4.22772 -2.741295,-4.28844 -3.058762,-5.1345 -2.21361,-5.89935 0.71847202,-0.65021 5.1164312,-2.65154 6.7776471,-3.08423 1.9871461,-0.51759 2.3224744,-0.50517 6.8307251,0.2529 4.933249,0.82954 5.135098,0.8935 16.360984,5.18407 l 9.468431,3.61887 1.840418,-1.74821 c 1.252571,-1.18982 2.568718,-2.12298 4.120569,-2.92151 2.566047,-1.32042 13.179841,-5.24514 16.722143,-6.18344 4.585904,-1.21475 10.026127,-1.90682 19.975007,-2.54112 7.124875,-0.45425 10.328565,-0.83587 15.801238,-1.88224 5.816798,-1.11217 8.145398,-1.36217 11.428368,-1.22696 3.13604,0.12915 4.06664,0.4366 4.38821,1.44971 0.33307,1.04944 -1.35728,3.17274 -3.85661,4.84439 -1.01023,0.67569 -2.06908,1.30226 -2.35301,1.39237 -0.28392,0.0901 -0.5162,0.24291 -0.5162,0.33957 0,0.0966 1.51447,0.48401 3.3655,0.86079 8.09546,1.64787 19.35731,4.55058 21.6535,5.58111 1.2573,0.56428 3.94335,1.59709 5.969,2.29514 2.02565,0.69804 4.88315,1.83965 6.35,2.53692 1.46685,0.69726 3.75285,1.63912 5.08,2.09302 3.1876,1.09018 4.39397,1.73018 5.87807,3.11838 1.43683,1.34398 1.68079,2.52087 0.66941,3.22927 -0.92682,0.64916 -5.93252,0.50502 -8.94781,-0.25765 -0.58092,-0.14694 -0.15283,0.32636 1.905,2.10609 1.45989,1.26259 3.68303,3.42237 4.94033,4.79951 1.2573,1.37714 3.82905,4.106836 5.715,6.065989 8.13336,8.449051 12.07346,13.877935 14.65113,20.18712 1.7642,4.318145 1.52496,4.945073 -2.04168,5.350345 -2.20256,0.250271 -5.68592,0.0176 -7.47085,-0.499011 -0.99962,-0.289316 -1.0699,-0.430855 1.44107,2.902009 5.77644,7.667221 16.09996,18.301393 21.61433,22.26471 2.86728,2.060789 6.53415,3.807273 10.414,4.960049 2.99834,0.890867 3.37993,0.94456 6.858,0.965007 3.77142,0.02217 4.6209,0.153688 5.3975,0.835645 1.13035,0.992581 0.0236,2.533569 -4.2545,5.9236 -4.47614,3.546988 -8.22493,5.597711 -14.22182,7.779853 -5.44461,1.981174 -7.05345,2.344658 -11.51984,2.602649 -2.1437,0.123827 -3.96295,0.290436 -4.04276,0.370245 -0.2269,0.226883 1.6465,2.808311 3.21653,4.432229 2.62707,2.717219 6.43948,5.279274 13.48689,9.063569 2.02565,1.0877294 4.65455,2.5693293 5.842,3.2924469 3.68785,2.2457843 13.48839,8.7551338 15.59123,10.355438 2.39045,1.8191785 5.73268,5.1329769 5.77487,5.7257291 0.0858,1.206246 -0.52962,2.073831 -1.47117,2.073831 -0.33017,0 -1.85745,0.4064 -3.39392,0.903113 -3.88295,1.255275 -4.65133,1.240713 -14.59601,-0.276639 -1.2573,-0.191839 -3.25704,-0.630855 -4.44388,-0.975589 -1.18684,-0.344737 -2.19802,-0.586659 -2.24706,-0.537606 -0.20927,0.209278 2.33476,5.466319 7.54519,15.591498 5.71757,11.110702 6.61668,13.191983 7.89938,18.285481 3.68704,14.641093 2.6481,26.983098 -2.59088,30.778189 -1.26065,0.913203 -2.92849,1.014105 -4.17718,0.252712 -1.60691,-0.979795 -3.32849,-3.712381 -5.60918,-8.903158 -0.22444,-0.510786 -0.28283,-0.06362 -0.29863,2.286 -0.078,11.608138 -1.20429,21.054777 -3.69471,30.988001 -2.32758,9.283645 -4.52936,14.239365 -8.71479,19.615075 l -1.13211,1.4541 1.95337,2.07642 c 1.97766,2.10228 5.86851,7.15114 8.1968,10.63641 2.84028,4.25163 7.05275,12.3052 8.73552,16.70088 0.33432,0.87333 0.67869,1.55913 0.76525,1.524 0.0865,-0.0351 1.01682,-1.20688 2.06723,-2.60388 3.05463,-4.06251 6.99694,-8.20245 14.05065,-14.75512 5.6085,-5.2101 24.80625,-24.47226 30.48162,-30.58388 4.72443,-5.087577 8.94507,-10.373203 12.33948,-15.453027 3.35081,-5.014639 4.85358,-8.24149 6.17009,-13.248978 1.3146,-5.000255 1.51981,-6.97303 1.51917,-14.605001 0,-7.965943 -0.23922,-10.47607 -2.2874,-24.069663 -1.19913,-7.958607 -1.77342,-10.562285 -3.29072,-14.919338 -1.03444,-2.970474 -7.12706,-18.9800915 -7.42978,-19.5232527 -0.10612,-0.1904365 -0.91143,-0.6163488 -1.78958,-0.9464675 -2.80868,-1.05587042 -4.92839,-2.3382021 -7.66285,-4.6356982 -6.00951,-5.0491925 -8.34641,-8.4900036 -10.2918,-15.1535816 -0.5728,-1.96198 -0.70414,-3.078051 -0.92659,-7.874 -0.39347,-8.483067 -0.38603,-8.558089 2.71952,-27.403972 l 1.1255,-6.829969 1.31306,-2.441031 c 2.11274,-3.927658 3.64347,-7.109979 6.48281,-13.477497 1.46698,-3.289844 3.41511,-7.484186 4.32918,-9.320766 1.72108,-3.457967 2.22735,-4.009546 3.41424,-3.719851 1.24379,0.303573 1.39969,0.674208 1.56266,3.715065 0.0846,1.578582 0.341,3.776868 0.56977,4.885083 0.41357,2.003219 2.06279,6.813652 2.90378,8.469585 l 0.44013,0.866645 0.17879,-1.814657 c 0.35814,-3.634352 1.55062,-6.819971 3.32118,-8.872137 0.75204,-0.871656 1.09594,-1.0795 1.78615,-1.0795 0.59835,0 0.97511,0.171468 1.25576,0.5715 0.81625,1.163526 1.89468,4.507022 2.8879,8.953501 1.52994,6.849371 4.36019,14.827164 7.34182,20.694701 2.65976,5.234173 3.68523,7.94925 5.18279,13.722299 1.00533,3.875469 1.01953,3.992578 0.90826,7.493 -0.089,2.801067 -0.26086,4.118329 -0.80938,6.204761 -1.51947,5.779788 -5.47626,14.246944 -8.54923,18.2944873 l -1.77414,2.3368204 0.43033,1.3139649 c 0.2367,0.7226833 1.82953,4.97156748 3.53964,9.4419676 4.66656,12.1988428 5.70494,15.7015718 6.70164,22.6060008 0.86444,5.988217 1.11897,10.872188 0.95971,18.415 -0.2,9.471251 -0.97904,16.914203 -2.73512,26.130558 -2.05661,10.793722 -3.89552,16.25554 -8.36483,24.844896 -6.23646,11.985532 -14.96619,23.908702 -25.51252,34.845352 -2.47566,2.56728 -7.88322,8.39658 -12.01677,12.954 -11.30754,12.46706 -18.72056,19.73182 -24.85301,24.35599 l -2.06177,1.55468 0.24742,1.25143 0.24745,1.25141 2.70332,0.17011 c 7.57779,0.4768 9.55741,1.3323 16.56807,7.16 6.1086,5.07784 9.24857,8.81446 11.66619,13.88291 2.38039,4.99041 3.82529,10.19101 4.32671,15.57312 0.32731,3.51315 0.18128,5.76636 -0.68204,10.52355 -2.42351,13.35425 -8.00143,28.94142 -16.04421,44.83455 l -2.71803,5.37101 3.42933,1.04778 c 1.88613,0.57627 4.40088,1.30081 5.58833,1.61008 6.08894,1.58587 9.3348,3.91058 11.21877,8.03498 1.17996,2.58318 1.49865,4.38054 1.65481,9.3326 0.22007,6.97936 -0.25552,9.09246 -3.03751,13.49548 -3.3973,5.37692 -6.64753,8.59779 -10.81671,10.71903 -3.43827,1.74932 -9.03443,4.02523 -11.36008,4.62005 -4.13573,1.05773 -8.09107,0.51087 -14.32928,-1.98122 -1.74625,-0.69759 -4.68031,-1.74064 -6.5201,-2.31786 -4.72324,-1.48188 -6.80527,-2.60924 -10.1169,-5.47791 -1.5367,-1.33116 -3.4798,-2.76101 -4.318,-3.17741 -3.00929,-1.49497 -6.8771,-1.52667 -10.0965,-0.0828 l -1.4605,0.65502 v 1.5894 c 0,2.46535 -0.47564,6.51546 -1.011,8.60867 -1.52092,5.94673 -5.18469,11.44334 -8.58583,12.88093 -2.12291,0.89733 -2.33205,1.04996 -3.11879,2.27596 -2.01519,3.14041 -4.13217,4.14884 -8.62038,4.10634 -3.41333,-0.0323 -5.5054,-0.38069 -8.92541,-1.48633 -4.302,-1.39072 -4.642,-1.38905 -8.22099,0.0406 -4.82628,1.92796 -6.71505,1.7145 -12.0636,-1.36347 -5.22049,-3.00424 -8.76882,-5.96661 -10.78614,-9.00491 l -0.95824,-1.4432 -1.59014,1.13472 c -3.0608,2.18414 -5.40392,2.93995 -13.335476,4.30159 -10.026711,1.72133 -13.7198,1.08806 -18.079781,-3.10022 l -0.934783,-0.89799 -0.412065,0.98676 c -1.431706,3.42842 -4.470463,7.42729 -7.442766,9.79432 -4.752297,3.78457 -7.341075,4.10603 -18.09699,2.24724 -7.05824,-1.21979 -9.907089,-2.18064 -12.665999,-4.27203 l -1.371384,-1.03957 -1.195492,1.7004 c -1.599156,2.27452 -4.216994,4.69755 -7.267885,6.72704 -5.253718,3.49484 -8.816843,4.96357 -11.321816,4.66689 -0.664667,-0.0787 -2.382886,-0.62527 -3.818263,-1.21457 -3.369856,-1.38346 -4.4180249,-1.40323 -8.2221854,-0.15499 -4.4943217,1.47467 -9.5155385,2.01759 -12.4549764,1.34668 z m 6.7643858,-3.94564 c 0.90805,-0.12857 3.0520538,-0.66919 4.7644533,-1.20139 2.444816,-0.75984 3.0810987,-1.04945 2.962788,-1.34864 -1.0314025,-2.60815 -1.4316405,-10.17496 -0.7528991,-14.23414 0.2367356,-1.41577 0.7360285,-3.50393 1.1095431,-4.64035 0.5704459,-1.7356 0.8120024,-2.14269 1.5095906,-2.54416 1.0160761,-0.58474 1.9213651,-0.41163 2.5048951,0.47894 0.398716,0.60851 0.385381,0.75824 -0.254105,2.85346 -1.46434,4.79776 -1.8377328,9.84438 -1.058519,14.30648 0.697489,3.99409 0.650263,3.92976 3.833144,5.22257 4.385577,1.7813 5.625986,1.49832 12.057373,-2.75072 3.269894,-2.16032 6.23649,-5.06895 7.451717,-7.30613 0.693656,-1.27702 0.713811,-1.40531 0.439664,-2.79875 -0.895548,-4.55199 -0.367431,-11.10341 1.005754,-12.47659 0.660476,-0.6605 2.113727,-0.65349 2.780601,0.0135 0.610499,0.61048 0.605912,0.45387 0.09858,3.36539 -0.285254,1.63703 -0.373583,3.24793 -0.291256,5.31173 0.10479,2.62692 0.194389,3.09217 0.791842,4.11165 1.191938,2.03388 3.685929,3.67485 7.154238,4.70728 0.974377,0.29004 4.229044,0.94211 7.232594,1.44907 6.43617,1.08631 9.202694,1.12331 11.211166,0.14996 1.576672,-0.76411 4.372575,-3.14267 5.885411,-5.00695 1.150341,-1.41755 3.985423,-6.693 3.985423,-7.41596 0,-0.1794 -0.5774,-1.34171 -1.283114,-2.5829 -0.705711,-1.24122 -1.677261,-3.35953 -2.159,-4.70738 -0.740976,-2.07315 -0.87661,-2.79134 -0.880593,-4.66276 l -0.0047,-2.21213 -1.503098,-2.413 c -3.999288,-6.42026 -7.850294,-9.75551 -12.428865,-10.76427 -3.73078,-0.822 -4.414121,-1.78948 -4.865487,-6.88874 -0.160754,-1.8161 -0.560133,-4.50215 -0.887512,-5.969 -0.857336,-3.84139 -1.305438,-7.26246 -1.76329,-13.462 -0.59432,-8.04735 -1.469548,-14.82829 -2.81777,-21.83094 l -0.613796,-3.18806 -0.0013,-21.87689 -0.0013,-21.87692 -1.2065,-0.96924 c -0.663575,-0.53309 -5.49275,-5.209 -10.7315,-10.39096 -9.583257,-9.47933 -12.347333,-12.07125 -15.621,-14.64805 -2.466147,-1.9412 -4.933998,-3.62059 -5.090459,-3.46416 -0.34067,0.34069 3.977081,11.55418 6.522709,16.93995 0.818813,1.73236 1.48875,3.43786 1.48875,3.79001 0,0.9127 -0.695533,1.56926 -1.662407,1.56926 -0.839455,0 -4.865205,-0.78483 -6.463916,-1.26017 -0.488028,-0.14511 -0.929874,-0.26383 -0.981878,-0.26383 -0.127927,0 0.181808,72.03001 0.374205,87.0233 0.111948,8.72394 0.07522,12.11265 -0.135557,12.5065 -0.466143,0.87099 -1.327465,0.90689 -3.4924668,0.14555 -1.6889755,-0.59393 -2.4104092,-0.70181 -4.78298,-0.71517 -3.31232508,-0.0185 -5.1649046,0.40813 -8.175216,1.88336 -3.9331215,1.92746 -8.4452792,5.88185 -10.9939612,9.63493 -5.966648,8.7863 -6.778586,22.20999 -1.836615,30.36454 1.50178,2.47802 2.739535,3.63766 5.058796,4.73953 1.848025,0.87801 2.222355,1.17712 3.2186574,2.57201 1.3043358,1.82616 2.1069148,2.62057 2.8223388,2.79364 0.8948014,0.21646 4.7719183,0.17925 6.47700002,-0.0622 z m 155.64802,-9.28908 c 0.72012,-0.28811 1.32586,-0.88339 2.33536,-2.29492 1.25659,-1.75704 1.5244,-1.98254 3.429,-2.88742 2.65775,-1.26268 4.28808,-2.99329 5.84708,-6.20662 1.60439,-3.30692 2.1706,-5.84395 2.33906,-10.48029 0.16035,-4.4134 -0.25154,-7.6007 -1.46027,-11.29957 -2.7637,-8.45721 -9.72985,-15.53058 -17.77025,-18.0437 -1.55235,-0.4852 -2.44574,-0.59282 -4.826,-0.58133 -2.52707,0.0122 -3.18925,0.10942 -4.90997,0.7209 -2.13429,0.75842 -3.02552,0.73431 -3.46875,-0.0939 -0.17874,-0.33393 -0.31926,-12.3605 -0.4303,-36.827 -0.0988,-21.77323 -0.25835,-36.33109 -0.39812,-36.33109 -0.12827,0 -1.12642,0.22806 -2.21811,0.50678 -7.48419,1.91089 -18.00758,3.45211 -28.77025,4.2136 l -2.4765,0.17521 v 12.72871 c 0,10.17719 -0.0766,13.16149 -0.38092,14.8877 -0.8842,5.01576 -1.66889,11.47658 -2.15944,17.78 -0.57114,7.33887 -0.986354,10.57686 -1.78747,13.93873 -0.287045,1.20465 -0.685012,3.88132 -0.884352,5.94815 -0.221869,2.30035 -0.528142,4.10708 -0.789635,4.65818 -0.58453,1.23177 -1.864004,1.99667 -4.372595,2.61399 -2.820334,0.69406 -4.300778,1.54018 -6.754426,3.86037 -2.568321,2.42862 -4.366044,4.91988 -7.548722,10.46084 -2.726993,4.74764 -3.926533,7.51149 -4.174038,9.61738 -0.402019,3.42054 3.323402,10.35626 7.33758,13.66055 3.75717,3.09273 5.554327,3.34442 13.898666,1.94648 6.599862,-1.10572 7.969552,-1.44437 10.315452,-2.55057 2.00047,-0.9433 3.59209,-2.24805 4.46468,-3.65994 0.49952,-0.80822 0.58313,-1.34124 0.66353,-4.22996 0.0606,-2.1782 -0.0363,-4.03888 -0.28431,-5.45694 -0.4303,-2.46047 -0.2749,-3.18516 0.77031,-3.59209 1.0638,-0.41415 2.38069,0.36403 2.80429,1.65712 0.8556,2.61193 1.04137,7.02755 0.44912,10.67616 l -0.36868,2.27144 0.92217,1.53856 c 1.91915,3.20189 6.25127,6.75645 11.66607,9.57214 3.03235,1.57683 3.76979,1.59931 7.263,0.22141 1.41666,-0.5588 2.71016,-1.016 2.87444,-1.016 0.32906,0 0.96078,-2.07797 1.35133,-4.445 0.85321,-5.17114 0.55631,-8.64398 -1.28602,-15.04221 -0.26114,-0.90693 -0.24524,-1.20533 0.10322,-1.93604 0.46292,-0.97074 1.42408,-1.35959 2.25781,-0.91338 1.1113,0.59474 2.52725,5.14446 3.0386,9.76363 0.33142,2.99385 0.14036,6.38129 -0.55695,9.87367 -0.27536,1.37922 -0.46708,2.53072 -0.426,2.55887 0.39657,0.27198 6.37103,1.98488 7.49894,2.14998 2.51661,0.36835 5.8054,0.3145 6.87273,-0.11257 z m -186.00102,-3.57223 c 0.992162,-0.1981 2.732232,-0.83785 3.937,-1.44747 2.48205,-1.25596 2.325451,-0.78438 1.788681,-5.38625 -1.087773,-9.32574 2.222584,-19.80123 8.347705,-26.416 1.767393,-1.90868 1.762559,-1.63213 0.07267,-4.15854 -1.63223,-2.4402 -5.107468,-9.15256 -6.986593,-13.49446 -1.793161,-4.14327 -3.302772,-8.80636 -5.797126,-17.907 -6.173531,-22.52409 -7.618135,-29.77739 -8.599947,-43.18 -0.655671,-8.95048 -0.782699,-10.00494 -2.157174,-17.907 -1.23366,-7.0925 -1.776923,-11.01771 -2.04421,-14.76998 l -0.174592,-2.45097 -2.321207,0.63142 c -10.014275,2.72402 -16.037364,5.75259 -20.287338,10.20097 -3.812529,3.99054 -5.807626,9.80443 -6.550444,19.08856 -0.377528,4.71858 0.03982,11.42281 1.288674,20.701 0.745841,5.54113 5.498811,34.41469 6.088787,36.98844 0.868611,3.78928 0.597344,5.80609 -0.956823,7.11383 -0.421305,0.35451 -1.650533,1.09213 -2.731615,1.63914 -2.402134,1.21547 -3.958786,2.83238 -5.396832,5.6057 -1.791467,3.45494 -2.225904,5.27688 -2.201319,9.23189 0.01849,2.97556 0.159829,4.10075 1.068809,8.509 2.244849,10.88679 3.664435,14.22867 8.200039,19.304 0.998754,1.1176 2.49586,2.86052 3.326902,3.87314 0.831043,1.01263 1.739682,1.96353 2.019199,2.11311 0.415541,0.2224 1.003145,0.0382 3.22248,-1.01031 2.621618,-1.23851 6.030821,-2.30523 7.390402,-2.31242 0.361828,-0.003 0.90074,-0.0686 1.197582,-0.14831 0.476966,-0.12799 0.516085,-0.25309 0.336491,-1.07602 -0.111772,-0.51217 -0.405587,-2.41709 -0.652922,-4.23319 -0.542574,-3.98394 -0.626028,-14.43111 -0.145077,-18.161 0.582381,-4.51648 1.354353,-8.10552 1.926806,-8.95807 0.991362,-1.47645 2.774673,-1.11875 3.216819,0.64523 0.07801,0.3112 -0.06751,1.70884 -0.323378,3.10584 -1.544386,8.43221 -1.64703,17.57703 -0.291511,25.97125 0.231209,1.43177 0.546532,2.69763 0.70072,2.81302 0.154186,0.11539 0.73754,0.34054 1.29634,0.50038 1.762907,0.50419 3.712332,1.87343 4.956536,3.48135 0.648596,0.8382 1.45606,1.66652 1.794365,1.84074 0.686376,0.35341 2.546998,0.2368 5.441099,-0.34102 z m 249.52025,-12.93724 c 0.88895,-0.20955 2.79403,-0.84148 4.23352,-1.40429 3.13248,-1.22474 3.16614,-1.2796 3.35499,-5.46732 0.14147,-3.13772 -0.16703,-4.66093 -1.46454,-7.23131 -0.85832,-1.7003 -2.90698,-4.01543 -4.54033,-5.13085 -1.46428,-0.99995 -1.78468,-1.4079 -1.79481,-2.28521 -0.0112,-0.9606 0.81071,-1.7145 1.86898,-1.7145 1.63815,0 5.79031,3.70619 7.50004,6.69445 1.63654,2.86037 2.34119,5.64726 2.3373,9.24405 -0.003,1.43192 0.0544,2.6035 0.12434,2.6035 0.45331,0 3.29011,-2.24699 4.58675,-3.63309 1.70681,-1.82458 4.9684,-6.54304 5.70108,-8.24761 0.75332,-1.75255 0.99708,-4.81271 0.74303,-9.3283 -0.25123,-4.46514 -0.4461,-5.38754 -1.59842,-7.56544 -1.4269,-2.69685 -3.66568,-4.0223 -9.46018,-5.6008 -1.8161,-0.49475 -4.27355,-1.1981 -5.461,-1.56302 -1.18745,-0.36492 -2.90195,-0.72839 -3.81,-0.80774 -2.07729,-0.18154 -2.794,-0.60033 -2.794,-1.63266 0,-0.4935 0.9162,-2.49797 2.52245,-5.51866 8.55124,-16.08128 14.33693,-31.49656 17.46245,-46.52668 0.62301,-2.99603 0.71326,-3.99027 0.71458,-7.874 0.003,-5.01107 -0.4254,-7.54251 -2.07181,-12.2793 -2.7305,-7.85577 -5.55376,-11.53503 -14.18267,-18.4828 -3.25628,-2.62186 -5.49219,-3.87692 -7.62,-4.27723 -1.48128,-0.27869 -6.52302,-0.75616 -6.68429,-0.63304 -0.0442,0.0337 0.0408,1.14721 0.18877,2.47447 0.79825,7.15873 0.56838,15.83834 -0.61976,23.40185 -0.57886,3.68496 -2.81584,14.71966 -4.97235,24.52805 -2.38918,10.86652 -7.13745,22.29792 -14.13759,34.036 -2.85394,4.78559 -11.10056,17.4565 -14.79535,22.733 -1.36952,1.9558 -3.07434,4.49933 -3.78848,5.65229 l -1.29845,2.09628 0.73352,1.45972 c 1.17313,2.33451 2.12073,5.16214 2.92804,8.73724 l 0.1521,0.67356 1.8196,-0.63279 c 2.52016,-0.87645 5.82176,-1.05725 8.49183,-0.46505 3.20378,0.71054 5.08701,1.81239 9.14461,5.35031 2.54711,2.22085 3.43642,2.6734 8.8678,4.51246 2.6543,0.89875 6.02615,2.09723 7.493,2.66329 4.54787,1.75501 7.19536,2.13185 10.12525,1.44117 z M 73.965964,299.34289 c 2.122609,-3.81734 4.627478,-7.80776 5.804951,-9.24766 1.401468,-1.71382 4.102067,-4.31724 5.562735,-5.36258 1.984614,-1.42026 3.815042,-2.24957 6.106716,-2.76667 l 1.819986,-0.41069 0.161519,-2.20703 c 0.224307,-3.06497 0.555955,-5.30055 1.269492,-8.55703 0.717067,-3.27249 1.012419,-5.73382 1.539291,-12.827 0.408813,-5.50385 1.080617,-11.15035 1.907184,-16.03022 0.450622,-2.66042 0.499542,-4.19006 0.499669,-15.621 l 1.02e-4,-12.67178 -5.874055,0.0881 c -8.682127,0.13015 -16.667663,-0.60028 -23.463174,-2.14615 -6.277097,-1.42794 -13.291469,-4.21663 -18.034,-7.16971 l -2.032,-1.2653 -0.06503,20.21655 -0.06503,20.21652 0.76679,4.18752 c 1.158194,6.32501 1.962854,12.69997 2.540785,20.12963 0.550085,7.07164 0.928827,9.95575 1.766738,13.45372 0.281833,1.17652 0.645096,3.68221 0.807247,5.56816 0.162154,1.88595 0.395412,3.55945 0.518348,3.71889 0.122939,0.15943 0.758274,0.37008 1.411859,0.4681 4.291135,0.64348 9.201132,4.31467 13.014503,9.73086 0.905411,1.28598 1.705511,2.33576 1.778,2.33282 0.07249,-0.003 1.088306,-1.72555 2.257377,-3.82801 z m -82.4516438,-9.91434 c 2.2724161,-1.37424 5.5149394,-2.61335 7.9469818,-3.03687 1.6761257,-0.29187 7.2361806,-0.21184 7.990078,0.11504 0.4358767,0.18897 0.4358005,-0.59711 -0.00267,-27.52649 -0.139888,-8.59155 -0.2536647,-27.68067 -0.2528367,-42.42026 l 0.00152,-26.79929 -1.7145,-0.59731 c -2.8346984,-0.98755 -8.2016625,-3.72531 -10.0965,-5.15035 -0.9779,-0.73546 -3.5517506,-3.11394 -5.7196663,-5.28549 -6.867741,-6.87931 -9.661464,-11.52825 -17.33122,-28.8403 -3.332406,-7.52186 -5.190916,-12.14913 -7.087037,-17.64505 -0.726643,-2.1062 -1.417688,-3.73294 -1.535651,-3.61498 -0.461861,0.46187 -1.69227,4.62795 -2.078322,7.03709 -0.223769,1.39642 -0.593161,5.95524 -0.820872,10.13069 -0.386829,7.09318 -0.385671,7.89389 0.01763,12.192 0.700184,7.46204 0.880432,10.66292 0.895548,15.90325 0.02765,9.58644 0.444904,14.34698 2.048159,23.368 1.266922,7.12856 1.730878,10.60099 2.138048,16.002 0.899574,11.93269 1.18459,14.29062 2.56363,21.209 1.566042,7.85652 7.606599,30.85241 9.620544,36.62459 1.930248,5.5323 6.237788,14.56957 8.791011,18.44365 l 1.306404,1.98224 0.674895,-0.44991 c 0.371194,-0.24747 1.5613689,-0.98603 2.6448364,-1.64125 z M 170.75179,282.98648 c 2.9038,-4.09537 11.75682,-17.66131 14.50599,-22.22825 6.51655,-10.82536 10.97135,-20.92673 13.32669,-30.21851 0.36752,-1.44976 1.62248,-7.2166 2.78885,-12.81521 3.71195,-17.81775 3.79931,-18.45877 3.80931,-27.95928 0.008,-7.49697 -0.16246,-9.77428 -1.16852,-15.621 -2.16365,-12.5742 -7.31355,-26.17188 -13.99751,-36.95873 -2.08516,-3.36512 -6.51434,-9.23836 -8.63478,-11.44999 l -1.85126,-1.93091 -2.87276,3.38933 c -1.58001,1.8641 -3.46464,4.27482 -4.18808,5.35711 -1.89913,2.84119 -2.90817,2.95123 -4.73073,0.5159 -2.21965,-2.96596 -2.75066,-4.76984 -3.12374,-10.61171 -0.0816,-1.27856 -4.17972,27.53959 -4.54982,31.99495 -0.2871,3.45605 -0.0592,9.33555 0.68968,17.78905 0.49322,5.56785 0.47897,6.1103 -0.17757,6.76684 -0.50909,0.50909 -0.70736,0.53312 -3.10416,0.37604 -1.40817,-0.0923 -5.81284,-0.6799 -9.78814,-1.30584 -3.97531,-0.62593 -7.26473,-1.13804 -7.30984,-1.13804 -0.0451,0 -0.082,5.02572 -0.082,11.16825 v 11.16828 l 1.9685,1.31811 c 3.4543,2.313 3.8735,2.70609 3.8735,3.63232 0,1.22106 -1.26238,2.10455 -4.42234,3.09499 l -1.50132,0.47056 0.16926,26.42025 c 0.0931,14.53113 0.24362,30.20456 0.3345,34.82982 l 0.16522,8.40959 1.03983,-0.25469 c 1.88846,-0.46253 6.16194,-0.3147 8.53285,0.29515 5.27533,1.35692 11.15096,5.16445 14.91615,9.66589 l 1.44889,1.73223 0.88728,-1.42887 c 0.48798,-0.78588 1.85874,-2.79901 3.04609,-4.47363 z m -34.26841,-96.76747 v -10.2772 l -1.0795,-0.28288 c -6.1562,-1.61313 -13.09378,-4.25925 -19.26166,-7.3467 -1.66476,-0.83332 -3.02684,-1.41061 -3.02684,-1.28287 0,0.12773 0.39192,1.12362 0.87094,2.21307 2.9704,6.75564 7.717,13.25626 14.87696,20.37436 3.17223,3.15369 7.25132,6.87944 7.53186,6.87944 0.0485,0 0.0882,-4.62476 0.0882,-10.27722 z m 73.533,-22.12008 c 4.37264,-3.54558 11.36414,-10.57567 20.95401,-21.0697 4.85122,-5.3086 10.74499,-11.65225 13.09728,-14.097 8.21698,-8.53999 15.39847,-17.91937 21.10105,-27.559 5.84025,-9.87233 8.48693,-16.409663 10.48906,-25.908005 3.25849,-15.458814 4.2734,-30.429084 2.93009,-43.220489 -0.92171,-8.777125 -1.96631,-12.620313 -6.87519,-25.2949409 -1.44709,-3.7363858 -2.70292,-7.07966088 -2.79073,-7.42950017 -0.0878,-0.34983928 -0.24536,-0.63607193 -0.35014,-0.63607193 -0.10477,0 -0.61021,0.63212477 -1.12319,1.40472167 -1.59138,2.39681013 -2.70443,3.33994003 -4.18137,3.54307143 -0.70807,0.097384 -1.63492,0.100739 -2.05963,0.00744 -0.46962,-0.1031443 -0.77224,-0.067257 -0.77224,0.09158 0,0.1436548 0.7543,2.1815604 1.67622,4.528683 4.15102,10.5681929 6.01079,16.1504989 6.79963,20.4099649 0.75413,4.072049 2.67714,17.980068 3.09375,22.375454 0.59088,6.233986 0.41173,16.384095 -0.36368,20.604143 -1.08725,5.917255 -3.09931,11.312551 -6.02351,16.151919 -2.70733,4.480476 -7.54149,10.798078 -12.60498,16.47305 -4.3027,4.82232 -25.918,26.7209 -30.93143,31.33684 -9.94369,9.15528 -15.08173,14.80452 -17.67302,19.43131 l -0.86537,1.54518 0.76758,2.26482 c 0.42218,1.24564 1.05677,3.35067 1.41021,4.67782 0.86663,3.25399 0.82106,3.14383 1.1871,2.86974 0.17297,-0.12952 1.5718,-1.25499 3.1085,-2.50104 z M 71.833875,133.37276 c 21.26313,-2.78735 40.550495,-19.1496 52.989965,-44.953535 7.912,-16.412317 12.47043,-35.47327 13.3414,-55.786753 l 0.17026,-3.970754 -6.45056,-0.153424 c -3.5478,-0.08438 -10.33676,-0.22372 -15.08656,-0.309636 -5.29189,-0.09572 -8.83272,-0.260609 -9.144,-0.42581 -1.19992,-0.636811 -1.51557,-2.056722 -0.63447,-2.854105 0.57293,-0.518492 3.35824,-0.54596 21.94835,-0.216443 l 9.37587,0.16619 -0.17081,-4.527911 c -0.094,-2.490351 -0.20485,-4.561942 -0.24646,-4.603537 -0.0416,-0.04159 -9.38451,1.00616 -20.76206,2.328342 -11.37752,1.322182 -20.763382,2.405062 -20.857438,2.406404 -0.09406,0.0013 -0.522681,-0.293475 -0.9525,-0.655143 -0.92296,-0.776617 -1.037565,-1.825924 -0.274854,-2.516177 0.504825,-0.456867 4.558056,-0.974171 36.323372,-4.635866 l 6.223,-0.717347 -0.0748,-1.007016 C 137.29631,7.5020851 135.84442,-2.1529453 135.1429,-5.0774049 l -0.31054,-1.2946278 -22.606,10.1456441 C 99.79308,9.3537146 89.25112,13.979969 88.7998,14.054175 c -1.218905,0.200411 -2.10042,-0.466562 -2.10042,-1.589222 0,-0.737207 0.159565,-0.995594 0.9525,-1.542397 0.523875,-0.361264 11.1252,-5.2114859 23.5585,-10.77827196 12.58928,-5.63662074 22.63877,-10.27783304 22.67996,-10.47440404 0.12284,-0.586171 -2.62755,-9.784403 -4.25942,-14.244909 -1.57244,-4.298064 -3.97556,-9.901591 -5.81747,-13.564947 -1.01153,-2.011817 -1.24216,-2.956763 -0.85168,-3.489292 0.10264,-0.139969 1.37584,-1.281717 2.82935,-2.537216 9.03118,-7.800889 14.33355,-17.694123 13.28169,-24.781155 -0.71351,-4.807339 -4.20363,-8.351543 -9.73288,-9.883783 -8.25027,-2.286267 -20.43066,-0.117531 -31.473643,5.603934 -1.052754,0.545439 -2.165172,0.99171 -2.47203,0.99171 -0.306857,0 -1.305407,-0.457505 -2.218969,-1.016676 -11.702164,-7.162508 -25.065706,-9.665287 -37.844908,-7.087746 -6.332571,1.277267 -14.112814,4.611642 -20.066,8.599673 -1.6764,1.123021 -3.2766,2.039963 -3.556,2.037654 -1.031829,-0.0085 -2.250867,-1.491739 -2.003501,-2.437666 0.109489,-0.418691 -0.332512,-0.717466 -2.870541,-1.940382 -7.84961,-3.782235 -14.914585,-5.564546 -22.176958,-5.594675 -5.5270781,-0.02294 -9.6828204,1.034004 -12.6607799,3.220027 -3.2360561,2.375484 -4.6021781,5.214526 -4.6082051,9.576661 -0.0068,4.914161 2.539997,10.699943 7.2720378,16.520582 1.9317081,2.376094 6.6451505,6.863286 9.5699148,9.110548 1.3636244,1.04775 2.5386335,2.139612 2.6111276,2.426361 0.079273,0.31356 -0.337754,1.528419 -1.046292,3.048 -4.90040172,10.509761 -8.274492,20.906979 -10.5051937,32.37164 -0.7259066,3.73078763 -1.8654953,10.9718909 -1.7399787,11.0560767 0.032103,0.021539 2.0014692,0.2965246 4.3763692,0.611096 11.5538733,1.5303805 33.108377,5.8713853 34.863517,7.0213983 0.802787,0.526006 1.183543,1.577619 0.842342,2.32647 -0.5452,1.196589 -1.127305,1.206282 -5.755723,0.09584 C 20.264212,15.882775 13.857786,14.566267 6.68938,13.355198 1.7859506,12.526784 -6.6315763,11.364285 -6.767126,11.496789 c -0.4744313,0.463784 -1.0302164,18.375435 -0.5701741,18.375435 0.1526083,0 6.62060652,-0.62865 14.3733266,-1.397 7.7527225,-0.76835 14.2181455,-1.397 14.3676065,-1.397 0.582943,0 1.287747,1.032708 1.287747,1.886856 0,0.950989 -0.488424,1.598979 -1.351262,1.792712 -0.304556,0.06839 -6.497338,0.697992 -13.761738,1.399134 -7.2644,0.701139 -13.579475,1.33634 -14.0335,1.411557 -0.8093024,0.134076 -0.8253552,0.162699 -0.8180629,1.458749 0.00884,1.572931 0.6839331,9.337028 0.8240319,9.477127 0.053675,0.05367 1.5173274,-0.479413 3.2525614,-1.184641 7.1284694,-2.897129 20.4487776,-6.843494 23.0990926,-6.843494 1.089033,0 1.772877,0.663311 1.772877,1.719646 0,1.102207 -1.099322,1.754388 -4.146413,2.459878 -6.543378,1.514988 -14.6542327,4.135227 -20.872587,6.742964 -1.397,0.585848 -2.5703428,1.093871 -2.6074294,1.128941 -0.037087,0.03507 0.225011,1.766971 0.5824423,3.848669 7.6086488,44.313308 33.3058111,76.770788 64.1279871,80.998568 3.354024,0.46007 9.556379,0.45905 13.074495,-0.003 z M 65.74438,110.38507 c -1.683149,-0.20945 -5.589509,-1.44252 -7.289833,-2.30106 -0.600692,-0.3033 -2.006567,-1.15083 -3.124167,-1.88339 C 42.103391,97.530817 33.096366,77.543194 30.447257,50.982139 c -0.214432,-2.149996 -0.389877,-4.121671 -0.389877,-4.3815 0,-0.815866 0.918172,-1.488415 2.032,-1.488415 1.575135,0 1.933621,0.53576 2.145017,3.205729 0.09821,1.240399 0.394655,3.969771 0.658767,6.065271 3.326011,26.388998 13.242382,45.029299 27.009532,50.771146 l 0.984316,0.41052 -0.16749,-0.82583 C 62.368852,103.01005 61.296134,95.614217 60.81295,91.594225 58.530107,72.601466 58.464826,51.569628 60.63263,33.499687 l 0.311379,-2.595538 -1.155815,-0.147198 C 55.440326,30.203229 52.637233,28.862589 49.736754,25.94962 47.407112,23.609953 46.033558,21.169216 45.421949,18.282432 44.063336,11.869795 46.742338,5.1434842 52.081623,1.5616346 L 53.708529,0.47022701 52.790786,0.29805819 C 51.515684,0.05884606 50.057439,-1.4726978 49.37947,-3.2847338 48.468385,-5.7198217 48.271801,-7.140083 48.415334,-10.250331 c 0.194686,-4.218709 1.249533,-6.95437 3.189966,-8.272927 1.224679,-0.832191 2.933657,-0.852475 4.125973,-0.04897 3.832124,2.582466 4.600669,12.3011058 1.351405,17.0891634 -0.525491,0.77435713 -0.557233,0.90610185 -0.179383,0.74454515 0.252497,-0.10795763 1.864132,-0.25096725 3.58141,-0.31779465 1.717279,-0.066827 3.083045,-0.1932711 3.035036,-0.2809824 -1.575996,-2.8793009 -2.056262,-5.1006706 -1.901606,-8.7954765 0.139969,-3.343918 0.79362,-5.68337 2.047131,-7.326808 1.290193,-1.691531 3.669992,-2.193592 5.274007,-1.112647 4.488168,3.024576 4.515673,15.3597993 0.04097,18.37529752 l -0.816044,0.54993287 1.661447,1.08247431 c 2.101828,1.3693954 4.125435,3.5972269 5.303056,5.838241 4.49901,8.5616343 0.67198,18.7867473 -8.413524,22.4793733 -1.025868,0.416944 -1.522547,0.773817 -1.6472,1.183536 -0.24652,0.810286 -0.893473,6.907825 -1.409718,13.286601 -0.610616,7.544821 -0.604805,27.487243 0.01026,35.179001 0.724772,9.063845 2.257072,21.266321 3.265605,26.005681 l 0.264015,1.24067 2.829123,-0.14608 c 3.418578,-0.1765 5.144133,-0.61646 8.20372,-2.09159 13.738413,-6.623762 23.339697,-26.954542 26.012647,-55.081977 0.3652,-3.842949 0.61625,-4.293929 2.31978,-4.167129 0.76177,0.0567 1.16771,0.248945 1.51661,0.718241 0.46627,0.627143 0.4655,0.746988 -0.0352,5.617583 -2.31053,22.474835 -9.084031,40.084096 -19.322921,50.234192 -6.885236,6.82557 -14.529882,9.7045 -22.977503,8.65325 z m 50.29078,-157.833973 c -0.73038,-0.730375 -1.06022,-1.847988 -0.71145,-2.410689 0.13812,-0.222852 0.86931,-0.834956 1.62489,-1.360228 3.77362,-2.623401 5.77748,-4.71708 7.22988,-7.553958 0.91793,-1.792948 1.01435,-3.921877 0.2255,-4.979647 -0.99632,-1.335974 -2.22786,-1.751353 -5.1926,-1.751353 -3.03129,0 -4.94779,0.482557 -8.67001,2.183008 -2.42555,1.108088 -3.11562,1.086322 -3.90817,-0.123254 -1.02873,-1.570035 -0.0201,-2.667597 3.9453,-4.292854 3.50899,-1.438221 5.33151,-1.815292 8.75988,-1.812361 3.64734,0.0031 5.22084,0.501206 7.19742,2.278322 1.77084,1.592133 2.4227,3.061408 2.41805,5.450139 -0.007,3.498365 -1.51282,6.495306 -5.04347,10.03633 -2.29801,2.304768 -5.92983,4.94967 -6.79658,4.94967 -0.25603,0 -0.74143,-0.275907 -1.07864,-0.613125 z M 6.5405462,-48.406989 c -5.1394691,-3.437484 -8.6531323,-8.473107 -8.9386868,-12.810513 -0.5406161,-8.211653 9.3278351,-11.042155 20.0088476,-5.739003 2.801638,1.391021 3.287423,2.064809 2.374707,3.293737 -0.285115,0.383896 -0.80298,0.859577 -1.150811,1.05707 -0.583732,0.331437 -0.801705,0.278259 -2.831333,-0.690738 -3.632832,-1.734406 -5.46786,-2.200562 -8.67889,-2.204723 -2.5844805,-0.0034 -2.8818611,0.04803 -3.9656639,0.685173 -0.7069176,0.415579 -1.2986639,0.995401 -1.4918461,1.461783 -0.4815586,1.162583 -0.2059407,3.280961 0.649991,4.995804 0.9358427,1.874936 4.4178093,5.43764 6.8021861,6.959905 1.9825259,1.265707 2.3835869,1.939836 1.8118459,3.045462 -0.861203,1.665377 -2.0404535,1.651516 -4.5903468,-0.05396 z"
       id="path191" /></g></svg>
